<svg fill="none" height="200" viewBox="0 0 200 200" width="200" xmlns="http://www.w3.org/2000/svg">
    <linearGradient gradientUnits="userSpaceOnUse" id="a" x1="0" x2="200" y1="100" y2="100">
        <stop offset="0" stop-color="#4fabf6" />
        <stop offset="1" stop-color="#1974d0" />
    </linearGradient>
    <clipPath id="b">
        <path d="m0 0h200v200h-200z" />
    </clipPath>
    <g clip-path="url(#b)">
        <path
            d="m130.837 0h-61.6737c-38.1979 0-69.1633 30.9654-69.1633 69.1633v61.6737c0 38.198 30.9654 69.163 69.1633 69.163h61.6737c38.198 0 69.163-30.965 69.163-69.163v-61.6737c0-38.1979-30.965-69.1633-69.163-69.1633z"
            fill="url(#a)" />
        <g fill="#fff">
            <path d="m64.3068 54.852v-5.2359h1.7353v-1.2167h-4.7472v1.2167h1.7353v5.2359z" />
            <path
                d="m68.0266 50.6832 1.8151 2.982.1396-.01 1.825-2.9919v4.1887h1.2567v-6.4526h-1.3065l-1.845 3.0418-1.8451-3.0418h-1.3164v6.4526h1.2766z" />
            <path d="m61.2949 87.0951h51.6011v51.6009h25.8v-51.6009-25.7904h-77.4011z" />
        </g>
    </g>
</svg>