<svg fill="none" height="24" viewBox="0 0 25 24" width="25" xmlns="http://www.w3.org/2000/svg">
    <g clip-path="url(#clip0_141_4613)">
        <path
            d="M6.17171 22.2851C5.95312 22.285 5.74058 22.2133 5.56661 22.081C5.39263 21.9486 5.26681 21.7629 5.20839 21.5523C5.14998 21.3417 5.16219 21.1177 5.24315 20.9146C5.32412 20.7116 5.46938 20.5407 5.65671 20.4281C9.19971 18.3001 9.19971 13.7301 9.19971 11.0001C9.19971 10.2044 9.51578 9.44134 10.0784 8.87873C10.641 8.31612 11.4041 8.00005 12.1997 8.00005C12.9954 8.00005 13.7584 8.31612 14.321 8.87873C14.8836 9.44134 15.1997 10.2044 15.1997 11.0001C15.1997 11.2653 15.0943 11.5196 14.9068 11.7072C14.7193 11.8947 14.4649 12.0001 14.1997 12.0001C13.9345 12.0001 13.6801 11.8947 13.4926 11.7072C13.3051 11.5196 13.1997 11.2653 13.1997 11.0001C13.1997 10.7348 13.0943 10.4805 12.9068 10.2929C12.7193 10.1054 12.4649 10.0001 12.1997 10.0001C11.9345 10.0001 11.6801 10.1054 11.4926 10.2929C11.3051 10.4805 11.1997 10.7348 11.1997 11.0001C11.1997 13.9471 11.1997 19.4341 6.68571 22.1431C6.53039 22.236 6.35274 22.2851 6.17171 22.2851V22.2851ZM11.1347 23.7061C13.4167 21.4061 14.7497 18.1721 15.0957 14.0851C15.1074 13.9539 15.093 13.8218 15.0535 13.6963C15.014 13.5707 14.9501 13.4542 14.8655 13.3534C14.7808 13.2526 14.6771 13.1695 14.5603 13.1089C14.4435 13.0482 14.3159 13.0112 14.1847 13.0001C14.0535 12.9866 13.9209 12.9997 13.7948 13.0386C13.6688 13.0774 13.5518 13.1412 13.451 13.2263C13.3501 13.3113 13.2674 13.4157 13.2077 13.5333C13.1481 13.651 13.1127 13.7794 13.1037 13.9111C12.7927 17.5681 11.6847 20.3111 9.71571 22.2921C9.52873 22.4802 9.42416 22.735 9.425 23.0002C9.42585 23.2655 9.53204 23.5196 9.72021 23.7066C9.90838 23.8935 10.1631 23.9981 10.4284 23.9973C10.6937 23.9964 10.9477 23.8902 11.1347 23.7021V23.7061ZM16.3347 23.5201C16.9413 22.5122 17.4464 21.4466 17.8427 20.3391C17.9255 20.0913 17.9082 19.8211 17.7943 19.586C17.6805 19.3509 17.4791 19.1697 17.2334 19.0811C16.9877 18.9926 16.7171 19.0037 16.4794 19.112C16.2418 19.2204 16.056 19.4175 15.9617 19.6611C15.6096 20.6431 15.1614 21.588 14.6237 22.4821C14.5556 22.5944 14.5102 22.7191 14.4902 22.8489C14.4702 22.9788 14.476 23.1114 14.5073 23.239C14.5385 23.3666 14.5946 23.4869 14.6723 23.5928C14.75 23.6988 14.8479 23.7884 14.9602 23.8566C15.1871 23.9942 15.4594 24.0361 15.7171 23.973C15.8448 23.9417 15.965 23.8856 16.071 23.8079C16.1769 23.7302 16.2666 23.6324 16.3347 23.5201V23.5201ZM18.6997 17.1911C19.0702 15.1489 19.2377 13.0752 19.1997 11.0001C19.1988 9.58335 18.768 8.20028 17.9643 7.03361C17.1606 5.86694 16.0218 4.9716 14.6984 4.46589C13.3751 3.96019 11.9294 3.86793 10.5525 4.20131C9.17555 4.53469 7.93219 5.27801 6.98671 6.33305C6.89463 6.43005 6.82294 6.54454 6.77589 6.66974C6.72884 6.79494 6.70738 6.92831 6.71279 7.06195C6.7182 7.19558 6.75036 7.32678 6.80737 7.44777C6.86438 7.56876 6.94508 7.67708 7.0447 7.76633C7.14431 7.85558 7.26082 7.92393 7.38732 7.96735C7.51383 8.01078 7.64776 8.02838 7.78118 8.01912C7.91461 8.00987 8.04483 7.97394 8.16412 7.91346C8.28342 7.85299 8.38937 7.7692 8.47571 7.66705C9.15099 6.91333 10.0391 6.38226 11.0226 6.14402C12.0061 5.90578 13.0388 5.97159 13.9842 6.33276C14.9295 6.69392 15.743 7.33344 16.3171 8.16678C16.8913 9.00013 17.199 9.98808 17.1997 11.0001C17.2366 12.9469 17.0818 14.8926 16.7377 16.8091C16.6872 17.0692 16.742 17.3388 16.8902 17.5585C17.0383 17.7783 17.2676 17.9303 17.5277 17.9811C17.5913 17.9938 17.6559 18.0001 17.7207 18.0001C17.9523 17.9995 18.1766 17.9185 18.3551 17.7709C18.5337 17.6234 18.6555 17.4184 18.6997 17.1911ZM7.19971 11.0001C7.19942 10.7209 7.2225 10.4423 7.26871 10.1671C7.29857 10.0345 7.30112 9.89734 7.2762 9.76381C7.25129 9.63028 7.19943 9.50322 7.12379 9.3904C7.04816 9.27757 6.95033 9.18134 6.83627 9.10756C6.72222 9.03379 6.59433 8.98403 6.46041 8.96131C6.32649 8.93859 6.18934 8.9434 6.05734 8.97543C5.92534 9.00747 5.80124 9.06606 5.69263 9.14763C5.58402 9.2292 5.49316 9.33205 5.42561 9.44989C5.35805 9.56774 5.31522 9.69811 5.29971 9.83305C5.23369 10.2186 5.20024 10.6089 5.19971 11.0001C5.19971 15.6451 3.85371 18.0001 1.19971 18.0001C0.934491 18.0001 0.680137 18.1054 0.4926 18.2929C0.305064 18.4805 0.199707 18.7348 0.199707 19.0001C0.199707 19.2653 0.305064 19.5196 0.4926 19.7072C0.680137 19.8947 0.934491 20.0001 1.19971 20.0001C5.06871 20.0001 7.19971 16.8001 7.19971 11.0001ZM20.8997 23.4141C22.5454 19.4882 23.3297 15.2549 23.1997 11.0001C23.2043 9.33898 22.828 7.69896 22.0997 6.20605C22.0423 6.08786 21.9621 5.98215 21.8638 5.89494C21.7655 5.80773 21.6509 5.74074 21.5267 5.6978C21.4025 5.65485 21.2711 5.63679 21.1399 5.64464C21.0087 5.65249 20.8804 5.6861 20.7622 5.74355C20.644 5.801 20.5383 5.88118 20.4511 5.97948C20.3639 6.07779 20.2969 6.19232 20.254 6.31651C20.211 6.44071 20.1929 6.57215 20.2008 6.70333C20.2086 6.83451 20.2423 6.96286 20.2997 7.08105C20.8947 8.30162 21.2026 9.64217 21.1997 11.0001C21.3256 14.9688 20.6032 18.9188 19.0807 22.5861C19.0265 22.7058 18.9964 22.8351 18.9922 22.9664C18.988 23.0978 19.0098 23.2287 19.0562 23.3517C19.1026 23.4747 19.1729 23.5873 19.2629 23.6831C19.3529 23.7789 19.4609 23.856 19.5807 23.9101C19.7102 23.9696 19.8511 24.0003 19.9937 24.0001C20.1849 23.9992 20.3719 23.9436 20.5325 23.8397C20.6931 23.7359 20.8205 23.5881 20.8997 23.4141V23.4141ZM3.19971 14.0001V11.0001C3.20235 8.61392 4.15142 6.32627 5.83867 4.63901C7.52592 2.95176 9.81357 2.0027 12.1997 2.00005C14.1481 1.99356 16.0449 2.62583 17.5997 3.80005C17.8119 3.95918 18.0786 4.02751 18.3411 3.99C18.6037 3.95249 18.8406 3.81222 18.9997 3.60005C19.1588 3.38788 19.2272 3.12118 19.1897 2.85863C19.1521 2.59608 19.0119 2.35918 18.7997 2.20005C16.8991 0.765473 14.581 -0.0072348 12.1997 5.10545e-05C9.28338 0.00349153 6.48749 1.16352 4.42533 3.22568C2.36318 5.28783 1.20315 8.08373 1.19971 11.0001V14.0001C1.19971 14.2653 1.30506 14.5196 1.4926 14.7072C1.68014 14.8947 1.93449 15.0001 2.19971 15.0001C2.46492 15.0001 2.71928 14.8947 2.90681 14.7072C3.09435 14.5196 3.19971 14.2653 3.19971 14.0001Z"
            fill="white" />
    </g>
    <defs>
        <clipPath id="clip0_141_4613">
            <rect fill="white" height="24" transform="translate(0.199707)" width="24" />
        </clipPath>
    </defs>
</svg>
