<svg fill="none" height="20" viewBox="0 0 20 20" width="20" xmlns="http://www.w3.org/2000/svg">
    <g fill="#1874cf">
        <path
            d="m13.9582 2.96675v-1.3c0-.34167-.2833-.625-.625-.625s-.625.28333-.625.625v1.25h-5.41667v-1.25c0-.34167-.28333-.625-.625-.625-.34166 0-.625.28333-.625.625v1.3c-2.25.20833-3.34166 1.55-3.50833 3.54166-.01667.24167.18333.44167.41667.44167h14.10003c.2416 0 .4416-.20833.4166-.44167-.1666-1.99166-1.2583-3.33333-3.5083-3.54166z" />
        <path
            d="m16.6667 8.19995h-13.33337c-.45833 0-.83333.375-.83333.83333v5.13332c0 2.5 1.25 4.1667 4.16667 4.1667h6.66663c2.9167 0 4.1667-1.6667 4.1667-4.1667v-5.13332c0-.45833-.375-.83333-.8333-.83333zm-8.9917 6.97505c-.08333.075-.175.1333-.275.175-.1.0416-.20833.0666-.31667.0666-.10833 0-.21666-.025-.31666-.0666-.1-.0417-.19167-.1-.275-.175-.15-.1584-.24167-.375-.24167-.5917s.09167-.4333.24167-.5917c.08333-.075.175-.1333.275-.175.2-.0833.43333-.0833.63333 0 .1.0417.19167.1.275.175.15.1584.24167.375.24167.5917s-.09167.4333-.24167.5917zm.175-3.1917c-.04167.1-.1.1917-.175.275-.08333.075-.175.1333-.275.175s-.20833.0667-.31667.0667c-.10833 0-.21666-.025-.31666-.0667s-.19167-.1-.275-.175c-.075-.0833-.13334-.175-.175-.275-.04167-.1-.06667-.2083-.06667-.3167 0-.1083.025-.2166.06667-.3166.04166-.1.1-.1917.175-.275.08333-.075.175-.1334.275-.175.2-.0834.43333-.0834.63333 0 .1.0416.19167.1.275.175.075.0833.13333.175.175.275s.06667.2083.06667.3166c0 .1084-.025.2167-.06667.3167zm2.7417.275c-.0834.075-.175.1333-.275.175s-.2084.0667-.3167.0667c-.10833 0-.21667-.025-.31667-.0667s-.19166-.1-.275-.175c-.15-.1583-.24166-.375-.24166-.5917 0-.2166.09166-.4333.24166-.5916.08334-.075.175-.1334.275-.175.2-.0917.43337-.0917.63337 0 .1.0416.1916.1.275.175.15.1583.2416.375.2416.5916 0 .2167-.0916.4334-.2416.5917z" />
    </g>
</svg>