<svg fill="none" height="40" viewBox="0 0 40 40" width="40" xmlns="http://www.w3.org/2000/svg">
    <g fill="#f0a202">
        <path
            d="m21.25 19.375c0-.345-.28-.625-.625-.625h-10c-.345 0-.625.28-.625.625s.28.625.625.625h10c.345 0 .625-.28.625-.625z" />
        <path
            d="m11.3875 21.25c.6375 6 3.6738 10.1 8.7625 11.0375 4.925-1.05 7.8625-5.125 8.475-11.0375z" />
        <path
            d="m15.0823 4.02491c.2-.275.5862-.3625.8737-.175.2875.2.3613.5875.1763.875-1.4625 2.1875-1.4013 4.0125-.3763 5.2125.3125.37499.5888.61249 1.0138.87499.5737.3375 1.1737.7 1.5625 1.3625.6375 1.1.5375 2.4375-.2875 3.775-.1125.2-.3125.3-.525.3l-.325-.0875c-.3-.1875-.3888-.575-.2125-.8625.4125-.6625.7887-1.625.2737-2.5-.2362-.3875-.65-.6375-1.1225-.9125-.4762-.2875-.8762-.6125-1.3262-1.1375-1.7-1.98749-1.175-4.54999.275-6.72499z" />
        <path
            d="m21.3698 2.76251c.1875-.275.5875-.35.8625-.15.2875.2.35.5875.15.875-.625.9-1.2625 2.3-1.1125 3.5.1625 1.3625 1.2 1.6625 2.975 2.05.5375.125 1.075.2375 1.5875.4125 1.5125.525 2.4125 1.34999 2.7375 2.52499.3875 1.3375.1375 2.95-.6125 4.0125-.125.175-.3125.2625-.5125.2625-.125 0-.25-.0375-.3625-.1125-.2875-.2-.35-.5875-.15-.875.525-.7375.7125-1.975.4375-2.95-.2125-.7625-.8375-1.3-1.95-1.6875-.4375-.15-.925-.25-1.4375-.3625-1.6625-.36249-3.6625-.81249-3.9625-3.12499-.2263-1.9625.9737-3.85 1.35-4.375z" />
    </g>
    <path
        d="m16.3376 4.02491c.2-.275.5875-.3625.875-.175.2875.2.3625.5875.175.875-1.4625 2.1875-1.4 4.0125-.375 5.2125.3125.37499.5875.61249 1.0125.87499.575.3375 1.175.7 1.5625 1.3625.6375 1.1.5375 2.4375-.2875 3.775-.1125.2-.3125.3-.525.3l-.325-.0875c-.3-.1875-.3875-.575-.2125-.8625.4125-.6625.7875-1.625.275-2.5-.2362-.3875-.65-.6375-1.1237-.9125-.475-.2875-.875-.6125-1.3263-1.1375-1.7-1.98749-1.175-4.54999.275-6.72499z"
        fill="#fff" />
    <path
        d="m22.6251 2.76251c.1875-.275.5875-.35.8625-.15.2875.2.35.5875.15.875-.625.9-1.2625 2.3-1.1125 3.5.1625 1.3625 1.2 1.6625 2.975 2.05.5375.125 1.075.2375 1.5875.4125 1.5125.525 2.4125 1.34999 2.7375 2.52499.3875 1.3375.1375 2.95-.6125 4.0125-.125.175-.3125.2625-.5125.2625-.125 0-.25-.0375-.3625-.1125-.2875-.2-.35-.5875-.15-.875.525-.7375.7125-1.975.4375-2.95-.2125-.7625-.8375-1.3-1.95-1.6875-.4375-.15-.925-.25-1.4375-.3625-1.6625-.36249-3.6625-.81249-3.9625-3.12499-.225-1.9625.975-3.85 1.35-4.375z"
        fill="#fff" />
    <path
        d="m10.0375 20.0125c-.0125-.4125-.0375-.825-.0375-1.2625 0-.6875.5625-1.25 1.25-1.25h22.5c.6875 0 1.25.5625 1.25 1.25 0 6.9875-2.6 11.6625-6.8375 13.75h.5875c.35 0 .625.275.625.625s-.275.625-.625.625h-12.5c-.35 0-.625-.275-.625-.625s.275-.625.625-.625h.5875c-.7-.35-1.3625-.7625-1.975-1.25-8.53749-.05-9.93624-4.65-9.93624-6.875-.00125-3.025 1.96125-4.2875 5.11124-4.3625zm12.4625 12.4875c7.25 0 11.25-5.4625 11.25-13.75h-22.5c0 1.8125.1875 3.4875.575 5h7.55c.35 0 .625.275.625.625s-.275.625-.625.625h-7.1875c.3.9125.6875 1.75 1.1375 2.5h4.8c.35 0 .625.275.625.625s-.275.625-.625.625h-3.95c1.9 2.3875 4.7125 3.75 8.325 3.75zm-9.0125-2.5625c-1.825-2.0875-2.9875-5-3.35-8.6875-3.40124.0625-3.81374 1.5375-3.81374 3.125.00125.975.31375 4.975 7.16374 5.5625z"
        fill="#fff" />
    <path d="m11.25 20h22.5v1.25h-22.5z" fill="#fff" />
</svg>