<svg fill="none" height="22" viewBox="0 0 22 22" width="22" xmlns="http://www.w3.org/2000/svg">
    <g fill="#4fabf6">
        <path
            d="m9.1665 14.2083c-.37583 0-.6875.3116-.6875.6875v1.375c0 .3758.31167.6875.6875.6875.37584 0 .6875-.3117.6875-.6875v-1.375c0-.3759-.31166-.6875-.6875-.6875z" />
        <path
            d="m20.1668 19.4792h-.9166v-10.33079c0-.56834-.2567-1.1-.7059-1.44834l-6.4166-4.98666c-.66-.5225-1.595-.5225-2.25504 0l-6.41666 4.98666c-.44917.34834-.70584.88-.70584 1.43917l-.04583 10.33996h-.87083c-.37584 0-.6875.3025-.6875.6875 0 .3759.31166.6875.6875.6875h18.3333c.3759 0 .6875-.3116.6875-.6875 0-.385-.3116-.6875-.6875-.6875zm-10.54164-13.29163h2.75004c.3758 0 .6875.31167.6875.6875 0 .37584-.3117.6875-.6875.6875h-2.75004c-.37583 0-.6875-.31166-.6875-.6875 0-.37583.31167-.6875.6875-.6875zm5.95834 13.29163h-9.16667v-8.0208c0-.7608.61417-1.375 1.375-1.375h6.41667c.7608 0 1.375.6142 1.375 1.375z" />
    </g>
</svg>