<svg fill="none" height="24" viewBox="0 0 25 24" width="25" xmlns="http://www.w3.org/2000/svg">
    <g clip-path="url(#clip0_200_5284)">
        <path
            d="M17.7998 12.663V11H14.2998C12.3278 10.966 12.3288 8.034 14.2998 8H17.7998V6.337C17.7998 5.446 18.8768 5 19.5068 5.63L22.6698 8.793C23.0608 9.184 23.0608 9.817 22.6698 10.207L19.5068 13.37C18.8768 14 17.7998 13.554 17.7998 12.663ZM23.7998 16.5V18.5C23.7998 21.538 21.3378 24 18.2998 24H6.2998C3.9218 24 1.9588 22.141 1.7998 19.803V5.5C1.7998 2.462 4.2618 0 7.2998 0H18.2998C20.2658 0 22.0828 1.052 23.0648 2.753C23.4258 3.378 23.3418 4.208 22.7988 4.683C22.0428 5.344 20.9158 5.105 20.4718 4.26C20.0368 3.432 19.0918 3 18.1558 3H10.7998V15H22.2998C23.1278 15 23.7998 15.672 23.7998 16.5ZM4.7998 5.5V15.276C5.2708 15.108 5.7708 15 6.2998 15H7.7998V3H7.2998C5.9188 3 4.7998 4.119 4.7998 5.5ZM20.7998 18H6.2998C4.3278 18.035 4.3298 20.965 6.2998 21H18.2998C19.6788 21 20.7998 19.878 20.7998 18.5V18Z"
            fill="#B3BAC0" />
    </g>
    <defs>
        <clipPath id="clip0_200_5284">
            <rect fill="white" height="24" transform="translate(0.799805)" width="24" />
        </clipPath>
    </defs>
</svg>
