<svg fill="none" height="24" viewBox="0 0 25 24" width="25" xmlns="http://www.w3.org/2000/svg">
    <path
        d="M5.6001 14.75C4.0801 14.75 2.8501 13.52 2.8501 12C2.8501 10.48 4.0801 9.25 5.6001 9.25C7.1201 9.25 8.3501 10.48 8.3501 12C8.3501 13.52 7.1201 14.75 5.6001 14.75ZM5.6001 10.75C4.9101 10.75 4.3501 11.31 4.3501 12C4.3501 12.69 4.9101 13.25 5.6001 13.25C6.2901 13.25 6.8501 12.69 6.8501 12C6.8501 11.31 6.2901 10.75 5.6001 10.75Z"
        fill="#B3BAC0" />
    <path
        d="M19.6001 14.75C18.0801 14.75 16.8501 13.52 16.8501 12C16.8501 10.48 18.0801 9.25 19.6001 9.25C21.1201 9.25 22.3501 10.48 22.3501 12C22.3501 13.52 21.1201 14.75 19.6001 14.75ZM19.6001 10.75C18.9101 10.75 18.3501 11.31 18.3501 12C18.3501 12.69 18.9101 13.25 19.6001 13.25C20.2901 13.25 20.8501 12.69 20.8501 12C20.8501 11.31 20.2901 10.75 19.6001 10.75Z"
        fill="#B3BAC0" />
    <path
        d="M12.6001 14.75C11.0801 14.75 9.8501 13.52 9.8501 12C9.8501 10.48 11.0801 9.25 12.6001 9.25C14.1201 9.25 15.3501 10.48 15.3501 12C15.3501 13.52 14.1201 14.75 12.6001 14.75ZM12.6001 10.75C11.9101 10.75 11.3501 11.31 11.3501 12C11.3501 12.69 11.9101 13.25 12.6001 13.25C13.2901 13.25 13.8501 12.69 13.8501 12C13.8501 11.31 13.2901 10.75 12.6001 10.75Z"
        fill="#B3BAC0" />
</svg>
