<svg fill="none" height="22" viewBox="0 0 22 22" width="22" xmlns="http://www.w3.org/2000/svg">
    <g fill="#0bb783">
        <path
            d="m8.021 3.20825v-1.375c0-.37583-.31167-.6875-.6875-.6875-.37584 0-.6875.31167-.6875.6875v1.43c.22916-.0275.44-.055.6875-.055z" />
        <path
            d="m15.354 3.26325v-1.43c0-.37583-.3117-.6875-.6875-.6875s-.6875.31167-.6875.6875v1.375h.6875c.2475 0 .4583.0275.6875.055z" />
        <path
            d="m15.3542 3.26325v1.32c0 .37584-.3117.6875-.6875.6875-.3759 0-.6875-.31166-.6875-.6875v-1.375h-5.95837v1.375c0 .37584-.31166.6875-.6875.6875-.37583 0-.6875-.31166-.6875-.6875v-1.32c-2.70416.2475-3.89583 1.98917-3.89583 4.52834v7.79171c0 2.75 1.375 4.5833 4.58333 4.5833h7.33337c3.2083 0 4.5833-1.8333 4.5833-4.5833v-7.79171c0-2.53917-1.1917-4.28084-3.8958-4.52834zm-4.3542 12.09085h-3.66667c-.37583 0-.6875-.3117-.6875-.6875s.31167-.6875.6875-.6875h3.66667c.3758 0 .6875.3117.6875.6875s-.3117.6875-.6875.6875zm3.6667-4.5833h-7.33337c-.37583 0-.6875-.3117-.6875-.6875 0-.37588.31167-.68755.6875-.68755h7.33337c.3758 0 .6875.31167.6875.68755 0 .3758-.3117.6875-.6875.6875z" />
    </g>
</svg>