<svg fill="none" height="22" viewBox="0 0 22 22" width="22" xmlns="http://www.w3.org/2000/svg">
    <g fill="#4fabf6">
        <path
            d="m4.5835 7.3335c-1.52167 0-2.75 1.22833-2.75 2.75v7.3333c0 1.5217 1.22833 2.75 2.75 2.75h1.375c1.00833 0 1.83333-.825 1.83333-1.8333v-9.16667c0-1.00833-.825-1.83333-1.83333-1.83333zm.91666 8.25c0 .3758-.31166.6875-.6875.6875-.37583 0-.6875-.3117-.6875-.6875v-3.6667c0-.3758.31167-.6875.6875-.6875.37584 0 .6875.3117.6875.6875z" />
        <path
            d="m17.4165 1.83325h-5.5c-1.5217 0-2.75 1.22834-2.75 2.75v12.83335c0 1.5217 1.2283 2.75 2.75 2.75h.4583c.2567 0 .4584-.2017.4584-.4583v-3.2084c0-.5041.4125-.9166.9166-.9166h1.8334c.5041 0 .9166.4125.9166.9166v3.2084c0 .2566.2017.4583.4584.4583h.4583c1.5217 0 2.75-1.2283 2.75-2.75v-12.83335c0-1.52166-1.2283-2.75-2.75-2.75zm-3.8958 10.08335c0 .3758-.3117.6875-.6875.6875-.3759 0-.6875-.3117-.6875-.6875v-4.58335c0-.37583.3116-.6875.6875-.6875.3758 0 .6875.31167.6875.6875zm3.6666 0c0 .3758-.3116.6875-.6875.6875-.3758 0-.6875-.3117-.6875-.6875v-4.58335c0-.37583.3117-.6875.6875-.6875.3759 0 .6875.31167.6875.6875z" />
    </g>
</svg>