<svg fill="none" height="179" viewBox="0 0 239 179" width="239" xmlns="http://www.w3.org/2000/svg">
    <g opacity=".17" stroke="#4fabf6" stroke-width="2">
        <path d="m33.4328 158.136v-1h-1-31.4328v-14.21h46.6489v15.21 31.433h-14.2161z" />
        <path d="m169.276 137.861v-1h-1-31.433v-14.21h46.649v15.21 31.433h-14.216z" />
        <path d="m69.9279 117.586v-1h-1-31.4328v-14.21h46.6489v15.21 31.432h-14.2161z" />
        <path d="m205.772 97.3106v-1h-1-31.433v-14.21h46.649v15.21 31.4324h-14.216z" />
        <path d="m108.451 77.0355v-1h-1-31.4329v-14.2101h46.6489v15.2101 31.4325h-14.216z" />
        <path d="m244.294 56.7603v-1h-1-31.433v-14.21h46.649v15.21 31.4327h-14.216z" />
        <path d="m144.946 36.4852v-1h-1-31.433v-14.2101h46.649v15.2101 31.4327h-14.216z" />
    </g>
</svg>