<svg fill="none" height="24" viewBox="0 0 25 24" width="25" xmlns="http://www.w3.org/2000/svg">
    <path
        d="M12.3999 2C9.7799 2 7.6499 4.13 7.6499 6.75C7.6499 9.32 9.6599 11.4 12.2799 11.49C12.3599 11.48 12.4399 11.48 12.4999 11.49C12.5199 11.49 12.5299 11.49 12.5499 11.49C12.5599 11.49 12.5599 11.49 12.5699 11.49C15.1299 11.4 17.1399 9.32 17.1499 6.75C17.1499 4.13 15.0199 2 12.3999 2Z"
        fill="white" />
    <path
        d="M17.4799 14.1499C14.6899 12.2899 10.1399 12.2899 7.32986 14.1499C6.05986 14.9999 5.35986 16.1499 5.35986 17.3799C5.35986 18.6099 6.05986 19.7499 7.31986 20.5899C8.71986 21.5299 10.5599 21.9999 12.3999 21.9999C14.2399 21.9999 16.0799 21.5299 17.4799 20.5899C18.7399 19.7399 19.4399 18.5999 19.4399 17.3599C19.4299 16.1299 18.7399 14.9899 17.4799 14.1499Z"
        fill="white" />
</svg>
