<svg fill="none" height="24" viewBox="0 0 24 24" width="24" xmlns="http://www.w3.org/2000/svg">
    <path
        d="m12 2c-5.52 0-10 4.48-10 10s4.48 10 10 10 10-4.48 10-10-4.48-10-10-10zm-5.4 9.23c.17-1.19.7-2.26 1.53-3.1 2-1.99 5.15-2.1 7.29-.36v-.95c0-.41.34-.75.75-.75s.75.34.75.75v2.67c0 .41-.34.75-.75.75h-2.67c-.41 0-.75-.34-.75-.75s.34-.75.75-.75h.75c-1.55-1.08-3.69-.93-5.07.45-.6.6-.98 1.38-1.11 2.25-.05.37-.37.64-.74.64-.04 0-.07 0-.11-.01-.39-.05-.68-.43-.62-.84zm9.27 4.64c-1.07 1.07-2.47 1.6-3.87 1.6-1.22 0-2.43-.43-3.43-1.24v.94c0 .41-.34.75-.75.75s-.75-.34-.75-.75v-2.67c0-.41.34-.75.75-.75h2.67c.41 0 .75.34.75.75s-.34.75-.75.75h-.75c1.55 1.08 3.69.93 5.07-.45.6-.6.98-1.38 1.11-2.25.06-.41.43-.7.85-.64.41.06.69.44.64.85-.18 1.21-.71 2.28-1.54 3.11z"
        fill="#1874cf" />
</svg>