<svg xmlns:xlink="http://www.w3.org/1999/xlink" fill="none" height="24" viewBox="0 0 24 24"
    width="24" xmlns="http://www.w3.org/2000/svg">
    <linearGradient id="a">
        <stop offset="0" stop-color="#1974cf" />
        <stop offset="1" stop-color="#4fabf6" />
    </linearGradient>
    <linearGradient gradientUnits="userSpaceOnUse" id="b" x1="12.0001" x2="12.0001" y1="4.6499"
        y2="21.9999" xlink:href="#a" />
    <linearGradient gradientUnits="userSpaceOnUse" id="c" x1="12.0001" x2="12.0001" y1="2" y2="3.45"
        xlink:href="#a" />
    <path
        d="m12.0001 4.6499c-4.78002 0-8.67002 3.89-8.67002 8.67s3.89 8.68 8.67002 8.68c4.78 0 8.67-3.89 8.67-8.67s-3.89-8.68-8.67-8.68zm.75 8.35c0 .41-.34.75-.75.75s-.75-.34-.75-.75v-5c0-.41.34-.75.75-.75s.75.34.75.75z"
        fill="url(#b)" />
    <path
        d="m14.8901 3.45h-5.77996c-.4 0-.72-.32-.72-.72s.32-.73.72-.73h5.77996c.4 0 .72.32.72.72s-.32.73-.72.73z"
        fill="url(#c)" />
</svg>