<svg xmlns:xlink="http://www.w3.org/1999/xlink" fill="none" height="24" viewBox="0 0 24 24"
    width="24" xmlns="http://www.w3.org/2000/svg">
    <linearGradient id="a">
        <stop offset="0" stop-color="#1974cf" />
        <stop offset="1" stop-color="#4fabf6" />
    </linearGradient>
    <linearGradient gradientUnits="userSpaceOnUse" id="b" x1="12.0001" x2="12.0001" y1="2" y2="3.45"
        xlink:href="#a" />
    <linearGradient gradientUnits="userSpaceOnUse" id="c" x1="12.0001" x2="12.0001" y1="4.6499"
        y2="21.9999" xlink:href="#a" />
    <linearGradient gradientUnits="userSpaceOnUse" id="d" x1="18.5" x2="18.5" y1="15" y2="22"
        xlink:href="#a" />
    <path
        d="m14.8901 3.45h-5.77996c-.4 0-.72-.32-.72-.72s.32-.73.72-.73h5.77996c.4 0 .72.32.72.72s-.32.73-.72.73z"
        fill="url(#b)" />
    <path
        d="m14.0001 19.9699v-2.94c0-1.81 1.22-3.03 3.03-3.03h2.94c.23 0 .45.02.66.06.02-.24.04-.48.04-.73 0-4.79-3.89-8.68-8.67-8.68-4.78002 0-8.67002 3.89-8.67002 8.68 0 4.78 3.89 8.67 8.67002 8.67.85 0 1.66-.14 2.44-.36-.28-.47-.44-1.03-.44-1.67zm-1.25-6.97c0 .41-.34.75-.75.75s-.75-.34-.75-.75v-5c0-.41.34-.75.75-.75s.75.34.75.75z"
        fill="url(#c)" />
    <path
        d="m19.97 15h-2.93c-1.28 0-2.04.76-2.04 2.03v2.94c0 1.27.76 2.03 2.04 2.03h2.93c1.27 0 2.03-.76 2.03-2.03v-2.94c0-1.27-.76-2.03-2.03-2.03zm-2.05 5.06c0 .32-.26.58-.59.58-.32 0-.58-.26-.58-.58v-3.12c0-.32.26-.58.58-.58.33 0 .59.26.59.58zm2.33 0c0 .32-.26.58-.58.58s-.59-.26-.59-.58v-3.12c0-.32.27-.58.59-.58s.58.26.58.58z"
        fill="url(#d)" />
</svg>