<svg xmlns:xlink="http://www.w3.org/1999/xlink" fill="none" height="24" viewBox="0 0 24 24"
    width="24" xmlns="http://www.w3.org/2000/svg">
    <linearGradient id="a">
        <stop offset="0" stop-color="#1974cf" />
        <stop offset="1" stop-color="#4fabf6" />
    </linearGradient>
    <linearGradient gradientUnits="userSpaceOnUse" id="b" x1="12.0001" x2="12.0001" y1="2" y2="3.45"
        xlink:href="#a" />
    <linearGradient gradientUnits="userSpaceOnUse" id="c" x1="18.5" x2="18.5" y1="15" y2="22"
        xlink:href="#a" />
    <linearGradient gradientUnits="userSpaceOnUse" id="d" x1="12.0001" x2="12.0001" y1="4.6499"
        y2="21.9999" xlink:href="#a" />
    <path
        d="m14.8901 3.45h-5.77996c-.4 0-.72-.32-.72-.72s.32-.73.72-.73h5.77996c.4 0 .72.32.72.72s-.32.73-.72.73z"
        fill="url(#b)" />
    <path
        d="m19.97 15h-2.94c-1.27 0-2.03.76-2.03 2.03v2.94c0 1.27.76 2.03 2.03 2.03h2.94c1.27 0 2.03-.76 2.03-2.03v-2.94c0-1.27-.76-2.03-2.03-2.03zm-.28 4.46-1.18.68c-.24.14-.48.21-.7.21-.17 0-.32-.04-.46-.12-.32-.19-.5-.56-.5-1.05v-1.36c0-.49.18-.86.5-1.05s.73-.15 1.16.09l1.18.68c.42.25.66.59.66.96s-.23.71-.66.96z"
        fill="url(#c)" />
    <path
        d="m14.0001 19.9699v-2.94c0-1.81 1.22-3.03 3.03-3.03h2.94c.23 0 .45.02.66.06.02-.24.04-.48.04-.73 0-4.79-3.89-8.68-8.67-8.68-4.78002 0-8.67002 3.89-8.67002 8.68 0 4.78 3.89 8.67 8.67002 8.67.85 0 1.66-.14 2.44-.36-.28-.47-.44-1.03-.44-1.67zm-1.25-6.97c0 .41-.34.75-.75.75s-.75-.34-.75-.75v-5c0-.41.34-.75.75-.75s.75.34.75.75z"
        fill="url(#d)" />
</svg>